<svg width="18" height="20" viewBox="0 0 18 20" fill="none" xmlns="http://www.w3.org/2000/svg">
<path d="M5.99881 15V16C5.99881 16.7956 6.31488 17.5587 6.87749 18.1213C7.4401 18.6839 8.20316 19 8.99881 19C9.79446 19 10.5575 18.6839 11.1201 18.1213C11.6827 17.5587 11.9988 16.7956 11.9988 16V15M6.99881 3C6.99881 2.46957 7.20952 1.96086 7.5846 1.58579C7.95967 1.21071 8.46838 1 8.99881 1C9.52924 1 10.0379 1.21071 10.413 1.58579C10.7881 1.96086 10.9988 2.46957 10.9988 3C12.1472 3.54303 13.1262 4.38833 13.8309 5.4453C14.5355 6.50227 14.9392 7.73107 14.9988 9V12C15.0741 12.6217 15.2942 13.2171 15.6416 13.7381C15.989 14.2592 16.4539 14.6914 16.9988 15H0.99881C1.54375 14.6914 2.00862 14.2592 2.356 13.7381C2.70337 13.2171 2.92355 12.6217 2.99881 12V9C3.05837 7.73107 3.46211 6.50227 4.16676 5.4453C4.87141 4.38833 5.8504 3.54303 6.99881 3Z" stroke="#5F6980" stroke-width="1.38462" stroke-linecap="round" stroke-linejoin="round"/>
</svg>
